# AST/ASF file generated using VICON BodyLanguage
# -----------------------------------------------
:version 1.10
:name VICON
:units
  mass 1.0
  length 0.45
  angle deg
:documentation
   .ast/.asf automatically generated from VICON data using
   VICON BodyBuilder and BodyLanguage model FoxedUp or BRILLIANT.MOD
:root
   order TX TY TZ RX RY RZ
   axis XYZ
   position 0 0 0  
   orientation 0 0 0 
:bonedata
  begin
     id 1 
     name lhipjoint
     direction 0.692814 -0.645514 0.321437 
     length 2.38754 
     axis 0 0 0  XYZ
  end
  begin
     id 2 
     name lfemur
     direction 0.34202 -0.939693 0  
     length 6.41921  
     axis 0 0 20  XYZ
    dof rx ry rz
    limits (-160.0 20.0)
           (-70.0 70.0)
           (-60.0 70.0)
  end
  begin
     id 3 
     name ltibia
     direction 0.34202 -0.939693 0   
     length 6.98247   
     axis 0 0 20   XYZ
    dof rx
    limits (-10.0 170.0)
  end
  begin
     id 4 
     name lfoot
     direction 0.0947186 -0.260237 0.960888   
     length 1.83034   
     axis -90 7.62852e-016 20   XYZ
    dof rx rz
    limits (-45.0 90.0)
           (-70.0 20.0)
  end
  begin
     id 5 
     name ltoes
     direction 1.53538e-011 -4.21952e-011 1   
     length 0.920499   
     axis -90 7.62852e-016 20   XYZ
    dof rx
    limits (-90.0 20.0)
  end
  begin
     id 6 
     name rhipjoint
     direction -0.631686 -0.693949 0.345555   
     length 2.2209  
     axis 0 0 0  XYZ 
  end
  begin
     id 7 
     name rfemur
     direction -0.34202 -0.939693 0   
     length 6.49542   
     axis 0 0 -20   XYZ
    dof rx ry rz
    limits (-160.0 20.0)
           (-70.0 70.0)
           (-70.0 60.0)
  end
  begin
     id 8 
     name rtibia
     direction -0.34202 -0.939693 0   
     length 7.21712   
     axis 0 0 -20   XYZ
    dof rx
    limits (-10.0 170.0)
 end
 begin
     id 9 
     name rfoot
     direction -0.0825378 -0.226771 0.970444   
     length 1.89724  
     axis -90 -7.62852e-016 -20   XYZ
    dof rx rz
    limits (-45.0 90.0)
           (-20.0 70.0)
  end
  begin
     id 10 
     name rtoes
     direction -1.53515e-011 -4.22016e-011 1   
     length 0.955868   
     axis -90 -7.62852e-016 -20   XYZ
    dof rx
    limits (-90.0 20.0)
  end
  begin
     id 11 
     name lowerback
     direction -0.0104711 0.984802 -0.173368   
     length 1.84931   
     axis 0 0 0   XYZ
    dof rx ry rz
    limits (-20.0 45.0)
           (-30.0 30.0)
           (-30.0 30.0)
  end
  begin
     id 12 
     name upperback
     direction -0.00286433 0.999996 -0.000382853   
     length 1.85768   
     axis 0 0 0   XYZ
    dof rx ry rz
    limits (-20.0 45.0)
           (-30.0 30.0)
           (-30.0 30.0)
  end
  begin
     id 13 
     name thorax
     direction 0.00167534 0.996793 0.0800069   
     length 1.92   
     axis 0 0 0   XYZ
    dof rx ry rz
    limits (-20.0 45.0)
           (-30.0 30.0)
           (-30.0 30.0)
  end
  begin
     id 14 
     name lowerneck
     direction -0.0672491 0.995415 0.068018   
     length 1.58923   
     axis 0 0 0   XYZ
    dof rx ry rz
    limits (-20.0 45.0)
           (-30.0 30.0)
           (-30.0 30.0)
  end
  begin
     id 15 
     name upperneck
     direction 0.0958019 0.982476 -0.159884   
     length 1.60189   
     axis 0 0 0   XYZ
    dof rx ry rz
    limits (-20.0 45.0)
           (-30.0 30.0)
           (-30.0 30.0)
  end
  begin
     id 16
     name head
     direction 0.032989 0.997338 -0.0650226  
     length 1.61681  
     axis 0 0 0   XYZ
    dof rx ry rz
    limits (-20.0 45.0)
           (-30.0 30.0)
           (-30.0 30.0)
  end
  begin
     id 17 
     name lclavicle
     direction 0.954279 0.298875 -0.00496069  
     length 2.99449  
     axis 0 0 0   XYZ
    dof ry rz
    limits (-20.0 10.0)
           (0.0 20.0)
  end
  begin
     id 18 
     name lhumerus
     direction 1 -4.48985e-011 -4.2057e-027   
     length 4.79185   
     axis 180 -30 -90   XYZ
    dof rx ry rz
    limits (-60.0 90.0)
           (-90.0 90.0)
           (-90.0 90.0)
  end
  begin
     id 19
     name lradius
     direction 1 -4.48945e-011 1.15441e-028   
     length 2.65553   
     axis 180 -30 -90   XYZ
    dof rx
    limits (-10.0 170.0)
  end
  begin
     id 20
     name lwrist
     direction 1 -4.4899e-011 4.8894e-028   
     length 1.32777   
     axis -2.56392e-016 90 90   XYZ
    dof ry
    limits (-180.0 0.0)
 end
  begin
     id 21 
     name lhand
     direction 1 -4.48908e-011 9.7788e-028   
     length 0.743904   
     axis -6.23971e-016 90 90   XYZ
    dof rx rz
    limits (-90.0 90.0)
           (-45.0 45.0)
  end
  begin
     id 22 
     name lfingers
     direction 1 -4.49068e-011 1.95576e-027   
     length 0.599754   
     axis -1.24794e-015 90 90   XYZ
    dof rx
    limits (0.0 90.0)
  end
  begin
     id 23
     name lthumb
     direction 0.707107 -6.34883e-011 0.707107   
     length 0.861131   
     axis -90 45 2.85299e-015   XYZ
    dof rx rz
    limits (-45.0 45.0)
           (-45.0 45.0)
  end
  begin
     id 24 
     name rclavicle
     direction -0.957921 0.286916 0.00811568   
     length 3.06817  
     axis 0 0 0   XYZ 
    dof ry rz
    limits (-10.0 20.0)
           (-20.0 0.0)
  end
  begin
     id 25 
     name rhumerus
     direction -1 -4.48971e-011 -3.07942e-027  
     length 4.77254   
     axis 180 30 90   XYZ
    dof rx ry rz
    limits (-90.0 60.0)
           (-90.0 90.0)
           (-90.0 90.0)
  end
  begin
     id 26 
     name rradius
     direction -1 -4.48957e-011 -9.6815e-028   
     length 2.75995   
     axis 180 30 90   XYZ
    dof rx
    limits (-10.0 170.0)
  end
  begin
     id 27 
     name rwrist
     direction -1 -4.48979e-011 4.8894e-028   
     length 1.37997   
     axis -2.56392e-016 -90 -90   XYZ
    dof ry
    limits (-180.0 0.0)
  end
  begin
     id 28
     name rhand
     direction -1 -4.48906e-011 9.7788e-028   
     length 0.701619   
     axis -6.23971e-016 -90 -90   XYZ
    dof rx rz
    limits (-90.0 90.0)
           (-45.0 45.0)
  end
  begin
     id 29
     name rfingers
     direction -1 -4.49018e-011 1.95576e-027   
     length 0.565663   
     axis -1.24794e-015 -90 -90   XYZ
    dof rx
    limits (0.0 90.0)
  end
  begin
     id 30
     name rthumb
     direction -0.707107 -6.34881e-011 0.707107   
     length 0.812183   
     axis -90 -45 -2.85299e-015   XYZ
    dof rx rz
    limits (-45.0 45.0)
           (-45.0 45.0)
  end
:hierarchy
  begin
    root lhipjoint rhipjoint lowerback
    lhipjoint lfemur
    lfemur ltibia
    ltibia lfoot
    lfoot ltoes
    rhipjoint rfemur
    rfemur rtibia
    rtibia rfoot
    rfoot rtoes
    lowerback upperback
    upperback thorax
    thorax lowerneck lclavicle rclavicle
    lowerneck upperneck
    upperneck head
    lclavicle lhumerus
    lhumerus lradius
    lradius lwrist
    lwrist lhand lthumb
    lhand lfingers
    rclavicle rhumerus
    rhumerus rradius
    rradius rwrist
    rwrist rhand rthumb
    rhand rfingers
  end

#!OML:ASF F:\VICON\USERDATA\INSTALL\rory3\rory3.ASF
:FULLY-SPECIFIED
:DEGREES
1
root 0.420592 15.9791 -0.206065 -3.31592 -1.27245 -1.2674
lowerback 13.4247 0.997127 -2.24819
upperback -0.69824 0.9047 -0.719938
thorax -8.32295 0.518166 0.31889
lowerneck -9.01661 -12.4191 -16.7119
upperneck 25.4906 -17.13 9.5791
head 12.2197 -8.41282 3.74284
rclavicle 1.44243e-014 -5.56597e-015
rhumerus -32.1349 -2.24377 -88.1819
rradius 27.455
rwrist 10.1636
rhand -11.0718 10.2529
rfingers 7.12502
rthumb 14.9513 -19.1874
lclavicle 1.44243e-014 -5.56597e-015
lhumerus -28.7492 6.97518 83.8627
lradius 21.7858
lwrist -2.79807
lhand -8.11212 11.2171
lfingers 7.12502
lthumb 17.801 40.4224
rfemur 0.466662 13.744 18.7632
rtibia 19.4765
rfoot -12.5246 -14.2094
rtoes -15.5869
lfemur 1.64272 -12.2167 -17.4648
ltibia 17.2389
lfoot -11.7651 10.2546
ltoes -15.1173
2
root 0.421036 15.9783 -0.206229 -3.32786 -1.26854 -1.26184
lowerback 13.439 0.996083 -2.2288
upperback -0.695127 0.904727 -0.735637
thorax -8.32712 0.516946 0.291001
lowerneck -9.04595 -12.4245 -16.6731
upperneck 25.5138 -17.136 9.55396
head 12.2288 -8.4133 3.72496
rclavicle 3.45388e-015 -1.59028e-015
rhumerus -32.1467 -2.18404 -88.2302
rradius 27.4388
rwrist 10.0668
rhand -11.2884 10.2547
rfingers 7.12502
rthumb 14.7427 -19.2011
lclavicle 3.45388e-015 -1.59028e-015
lhumerus -28.7273 6.92941 83.8541
lradius 21.7292
lwrist -2.8005
lhand -8.0498 11.1954
lfingers 7.12502
lthumb 17.8609 40.3952
rfemur 0.489685 13.696 18.7478
rtibia 19.455
rfoot -12.4798 -14.1942
rtoes -15.8782
lfemur 1.67192 -12.2248 -17.4797
ltibia 17.2114
lfoot -11.7691 10.2811
ltoes -14.9566
3
root 0.420975 15.9779 -0.206996 -3.32382 -1.2735 -1.17797
lowerback 13.4448 0.998373 -2.31311
upperback -0.70235 0.891953 -0.75858
thorax -8.33905 0.514011 0.31656
lowerneck -9.04566 -12.4111 -16.6619
upperneck 25.5264 -17.115 9.5368
head 12.2274 -8.40478 3.72111
rclavicle 1.18028e-015 7.95139e-016
rhumerus -32.1489 -2.21476 -88.2237
rradius 27.3791
rwrist 10.1355
rhand -11.5923 10.4827
rfingers 7.12502
rthumb 14.4498 -18.9942
lclavicle 1.18028e-015 7.95139e-016
lhumerus -28.723 6.89876 83.8572
lradius 21.6898
lwrist -2.76875
lhand -8.01587 11.2408
lfingers 7.12502
lthumb 17.8936 40.4376
rfemur 0.453163 13.6591 18.6419
rtibia 19.4906
rfoot -12.4455 -14.1538
rtoes -16.1039
lfemur 1.67568 -12.2138 -17.5746
ltibia 17.1718
lfoot -11.7519 10.3083
ltoes -15.0911
4
root 0.421153 15.9784 -0.207894 -3.32346 -1.26857 -1.17703
lowerback 13.4524 0.987525 -2.30497
upperback -0.703348 0.879011 -0.75339
thorax -8.34408 0.507562 0.320025
lowerneck -9.04715 -12.4024 -16.644
upperneck 25.5091 -17.0848 9.47604
head 12.2078 -8.3959 3.70149
rclavicle 1.39149e-015 -1.11319e-014
rhumerus -32.1397 -2.31414 -88.1702
rradius 27.3405
rwrist 10.2714
rhand -11.6107 10.5052
rfingers 7.12502
rthumb 14.4321 -18.973
lclavicle 1.39149e-015 -1.11319e-014
lhumerus -28.7609 6.89473 83.8708
lradius 21.758
lwrist -2.68332
lhand -8.06206 11.2695
lfingers 7.12502
lthumb 17.8491 40.4704
rfemur 0.436487 13.6202 18.6323
rtibia 19.5112
rfoot -12.4455 -14.1066
rtoes -15.6519
lfemur 1.70169 -12.2511 -17.5832
ltibia 17.1272
lfoot -11.7082 10.3273
ltoes -15.1243
5
root 0.421537 15.9786 -0.207044 -3.32323 -1.25401 -1.13082
lowerback 13.4322 0.985246 -2.34016
upperback -0.70775 0.870715 -0.755406
thorax -8.33774 0.505045 0.339697
lowerneck -9.01667 -12.3927 -16.6806
upperneck 25.5007 -17.0675 9.47651
head 12.1998 -8.3927 3.71213
rclavicle 1.62134e-014 -1.59028e-015
rhumerus -32.1636 -2.33949 -88.1325
rradius 27.3634
rwrist 10.2852
rhand -11.5252 10.3596
rfingers 7.12502
rthumb 14.5145 -19.1127
lclavicle 1.62134e-014 -1.59028e-015
lhumerus -28.8224 7.00296 83.8617
lradius 21.7903
lwrist -2.79466
lhand -8.06781 11.196
lfingers 7.12502
lthumb 17.8436 40.3974
rfemur 0.428075 13.621 18.5805
rtibia 19.5534
rfoot -12.5274 -14.0961
rtoes -15.6275
lfemur 1.7418 -12.2601 -17.6382
ltibia 17.0722
lfoot -11.6799 10.3109
ltoes -15.0626
6
root 0.421046 15.9787 -0.205721 -3.30689 -1.26478 -1.08192
lowerback 13.3785 1.0005 -2.39141
upperback -0.698424 0.883952 -0.764348
thorax -8.29813 0.513159 0.357354
lowerneck -9.00818 -12.3979 -16.7413
upperneck 25.4991 -17.0861 9.54902
head 12.2146 -8.39926 3.74492
rclavicle 9.81499e-015 5.56597e-015
rhumerus -32.1524 -2.32558 -88.1185
rradius 27.3819
rwrist 10.2663
rhand -11.5274 10.3498
rfingers 7.12502
rthumb 14.5124 -19.1226
lclavicle 9.81499e-015 5.56597e-015
lhumerus -28.8262 7.01172 83.8812
lradius 21.7922
lwrist -2.85855
lhand -8.08292 11.1773
lfingers 7.12502
lthumb 17.829 40.38
rfemur 0.397042 13.6143 18.5187
rtibia 19.5779
rfoot -12.5437 -14.0925
rtoes -16.0162
lfemur 1.74785 -12.2627 -17.6944
ltibia 17.0466
lfoot -11.6483 10.3315
ltoes -15.0703
